<?xml version="1.0" encoding="UTF-8"?>
<svg version="1.1" xmlns="http://www.w3.org/2000/svg" width="500" height="500">
<path d="M0 0 C10.41151548 32.29155308 10.41151548 32.29155308 9 46 C7.26662481 48.20760048 5.33849598 49.36305281 3 51 C2.34 51 1.68 51 1 51 C0.34964629 48.48025747 -0.29537493 45.95934065 -0.9375 43.4375 C-1.21110352 42.38079102 -1.21110352 42.38079102 -1.49023438 41.30273438 C-2.61082296 36.88150307 -3.358102 32.52025648 -4 28 C-4.45060148 26.38126315 -4.94454671 24.77331914 -5.5 23.1875 C-5.7578125 22.43855469 -6.015625 21.68960938 -6.28125 20.91796875 C-6.97811277 18.95635215 -6.97811277 18.95635215 -8 17 C-10.38701864 17.08647916 -10.38701864 17.08647916 -13 18 C-14.98039103 20.40511611 -14.98039103 20.40511611 -16.5625 23.375 C-18.67165012 27.06723046 -20.31010649 29.78153641 -24 32 C-24.66 32 -25.32 32 -26 32 C-26.495 32.99 -26.495 32.99 -27 34 C-33.86266368 36.80745332 -42.54404313 37.54347904 -49.59375 35.1015625 C-51.07826271 34.38472588 -52.55541403 33.65237029 -54.0234375 32.90234375 C-59.58803026 30.36198619 -64.8780021 32.39674199 -70.27734375 34.34375 C-70.84582031 34.5603125 -71.41429687 34.776875 -72 35 C-71.57589844 35.77601563 -71.15179688 36.55203125 -70.71484375 37.3515625 C-54.28407098 67.61307366 -39.09914395 103.59486369 -45 139 C-45.66 139 -46.32 139 -47 139 C-47.09796875 138.16339844 -47.1959375 137.32679688 -47.296875 136.46484375 C-49.61500215 118.41942294 -55.48131415 101.38726543 -61.94482422 84.45336914 C-63.06511736 81.51798931 -64.12327687 78.60083958 -65.05078125 75.59765625 C-65.71563025 72.85609947 -65.71563025 72.85609947 -68 72 C-68 70.35 -68 68.7 -68 67 C-68.66 67 -69.32 67 -70 67 C-70.30292969 66.2265625 -70.60585937 65.453125 -70.91796875 64.65625 C-73.12922305 59.15873162 -75.39071688 54.07665184 -78.671875 49.14453125 C-80.95528886 45.45748946 -82.77616162 41.53513924 -84.66796875 37.63671875 C-85.99785969 34.87329051 -85.99785969 34.87329051 -88 32 C-88 30.68 -88 29.36 -88 28 C-87.1028125 27.70867187 -86.205625 27.41734375 -85.28125 27.1171875 C-84.0334375 26.70726562 -82.785625 26.29734375 -81.5 25.875 C-80.83379639 25.65634277 -80.16759277 25.43768555 -79.48120117 25.21240234 C-75.81172079 23.99166601 -72.18373424 22.70592447 -68.58203125 21.296875 C-67.86789063 21.01859863 -67.15375 20.74032227 -66.41796875 20.45361328 C-65.03526787 19.90944737 -63.65617613 19.35600188 -62.28125 18.79248047 C-59.65427504 17.76055013 -57.53924225 16.95704341 -54.6953125 17.18359375 C-51.95791007 18.50183593 -50.13413625 20.86586375 -48 23 C-43.46637501 25.72017499 -38.12861084 25.78079812 -33 25 C-28.21376301 22.2152803 -26.26267102 19.23588355 -24.54296875 14.16015625 C-23.86470223 11.46172903 -23.42613106 8.74834988 -23 6 C-20.60539412 5.18372554 -18.20943474 4.37188355 -15.8125 3.5625 C-15.13896484 3.33240234 -14.46542969 3.10230469 -13.77148438 2.86523438 C-9.13206569 1.30367394 -4.90702661 0 0 0 Z " fill="#3E3B3A" transform="translate(293,169)"/>
<path d="M0 0 C0.66 0 1.32 0 2 0 C0.69878559 8.16683257 0.69878559 8.16683257 -1.625 10.9375 C-8.4259857 13.98004623 -13.76928141 14.23859531 -21 13 C-21.99 14.65 -22.98 16.3 -24 18 C-22.06324055 19.45932573 -20.12562712 20.91749264 -18.1875 22.375 C-17.64029297 22.7875 -17.09308594 23.2 -16.52929688 23.625 C-14.05553395 25.48407032 -11.57565041 27.28289972 -9 29 C-9 29.66 -9 30.32 -9 31 C-8.278125 31.226875 -7.55625 31.45375 -6.8125 31.6875 C-1.23397189 34.29081312 2.39400478 39.54837126 6.3515625 44.13671875 C7.65184126 45.60646512 9.0319956 47.00553418 10.4375 48.375 C12 50 12 50 12 52 C12.99 52.33 13.98 52.66 15 53 C16.13500977 54.51879883 16.13500977 54.51879883 17.19140625 56.45703125 C17.57876953 57.15763672 17.96613281 57.85824219 18.36523438 58.58007812 C18.76033203 59.31677734 19.15542969 60.05347656 19.5625 60.8125 C19.96146484 61.53759766 20.36042969 62.26269531 20.77148438 63.00976562 C21.86192414 64.99949962 22.94165208 66.99301878 24 69 C24.3724585 69.65701904 24.74491699 70.31403809 25.12866211 70.9909668 C26 73 26 73 26 77 C22.21360875 75.73786958 21.95895404 74.34654649 20 71 C19.01 70.34 18.02 69.68 17 69 C16.67 68.01 16.34 67.02 16 66 C14.3545622 64.31237149 12.68711423 62.6459651 11 61 C10.34 60.01 9.68 59.02 9 58 C8.01 57.67 7.02 57.34 6 57 C5.67 56.01 5.34 55.02 5 54 C3.34151823 52.98648336 1.67334039 51.98879205 0 51 C-1.68762851 49.3545622 -3.3540349 47.68711423 -5 46 C-8.17128065 43.30441145 -11.38693203 41.06461027 -15 39 C-15.268125 40.216875 -15.53625 41.43375 -15.8125 42.6875 C-17.16694369 47.94756557 -18.66404796 51.39408852 -23.4375 54.25 C-26.07225425 55.54426525 -28.13958417 56.54233347 -31 57 C-31.66 59.31 -32.32 61.62 -33 64 C-32.37738281 63.95359375 -31.75476563 63.9071875 -31.11328125 63.859375 C-11.98071249 63.1122175 7.68363799 68.39586217 23 80 C23.91394531 80.68835938 24.82789063 81.37671875 25.76953125 82.0859375 C30.9506829 86.10042423 30.9506829 86.10042423 33 88 C33 88.66 33 89.32 33 90 C31.68 90 30.36 90 29 90 C29 89.34 29 88.68 29 88 C28.12472656 87.71898437 27.24945313 87.43796875 26.34765625 87.1484375 C23.29726301 86.10197821 20.39108774 84.91488394 17.4375 83.625 C7.33636694 79.40270147 -2.41040801 76.67740787 -13.296875 75.39453125 C-16 75 -16 75 -17 74 C-22.78334988 72.95201042 -28.57354518 72.69502429 -34.4375 72.4375 C-35.35982422 72.39431641 -36.28214844 72.35113281 -37.23242188 72.30664062 C-39.48816163 72.20145069 -41.74399499 72.09930893 -44 72 C-44.2654341 66.05427618 -43.54567154 61.56201506 -41.5 56 C-41.26152344 55.32066406 -41.02304688 54.64132812 -40.77734375 53.94140625 C-40.19597776 52.29032684 -39.5995769 50.64455379 -39 49 C-38.34773437 48.96261719 -37.69546875 48.92523438 -37.0234375 48.88671875 C-30.84986294 48.42233482 -26.31150787 47.4836309 -21.25 43.6875 C-19.49519844 41.3185179 -18.81208047 38.81104778 -18 36 C-18.66 35.67 -19.32 35.34 -20 35 C-20 34.34 -20 33.68 -20 33 C-20.845625 32.7525 -21.69125 32.505 -22.5625 32.25 C-29.68091898 29.66148401 -35.77344095 25.23575446 -42 21 C-40.37159701 17.59780091 -38.51714616 14.83178943 -36 12 C-35.34 12 -34.68 12 -34 12 C-33.7525 11.443125 -33.505 10.88625 -33.25 10.3125 C-31.78393985 7.60028873 -29.97010529 5.36412635 -28 3 C-24.86711984 3.44755431 -22.0453304 3.9836039 -19.0625 5.0625 C-14.14480413 6.5679171 -10.48109492 6.65509968 -5.75 4.5625 C-4.8425 4.046875 -3.935 3.53125 -3 3 C-2.01 2.67 -1.02 2.34 0 2 C0 1.34 0 0.68 0 0 Z " fill="#3C3939" transform="translate(214,223)"/>
<path d="M0 0 C12.63312483 -0.61680718 12.63312483 -0.61680718 18 3 C18.9375 6.6875 18.9375 6.6875 19 10 C19.66 10 20.32 10 21 10 C20.66063636 17.97504543 16.99180571 23.1866827 11.25 28.5859375 C8.2573556 31.18111752 5.15335603 33.60312052 2 36 C0.90365234 36.83337891 0.90365234 36.83337891 -0.21484375 37.68359375 C-7.27733746 42.68562865 -15.22214715 46.26546131 -23 50 C-23.65371582 50.31646484 -24.30743164 50.63292969 -24.98095703 50.95898438 C-42.40292976 59.37232884 -61.35170139 67.54866083 -81 68 C-82.01707031 68.05027344 -83.03414062 68.10054688 -84.08203125 68.15234375 C-90.06310982 68.33671732 -94.97070212 68.46462743 -100 65 C-101.59944382 60.70675606 -101.21560789 57.87244168 -99.375 53.8125 C-97.02741214 49.63541264 -94.34397356 46.76020764 -89.6875 45.25 C-89.130625 45.1675 -88.57375 45.085 -88 45 C-88.309375 45.53625 -88.61875 46.0725 -88.9375 46.625 C-90.17827439 49.3984957 -90.5909675 52.00042837 -91 55 C-74.14590825 60.61803058 -48.96020309 47.55697228 -34.125 40.25 C-27.36867245 36.8626428 -20.86071701 33.07891113 -14.40673828 29.14941406 C-9.20018534 26 -9.20018534 26 -7 26 C-7 25.34 -7 24.68 -7 24 C-5.20703125 22.66796875 -5.20703125 22.66796875 -2.8125 21.1875 C4.10414442 16.92514271 4.10414442 16.92514271 7.75 10 C6.8884429 6.55377159 6.30900735 6.19118394 3.5 4.25 C2.52546875 3.66992188 2.52546875 3.66992188 1.53125 3.078125 C1.0259375 2.72234375 0.520625 2.3665625 0 2 C0 1.34 0 0.68 0 0 Z " fill="#3A3736" transform="translate(307,263)"/>
<path d="M0 0 C0 0.99 0 1.98 0 3 C-1.6126476 4.37246604 -3.23052667 5.73915712 -4.87109375 7.078125 C-12.06685422 13.57411427 -17.60961081 21.99864104 -23 30 C-23.66 30.97066406 -24.32 31.94132812 -25 32.94140625 C-32.2947422 43.75917735 -38.86442606 54.89103148 -44.79296875 66.515625 C-45.69982422 68.27132812 -45.69982422 68.27132812 -46.625 70.0625 C-47.17414063 71.14660156 -47.72328125 72.23070312 -48.2890625 73.34765625 C-50.03287271 76.0509602 -51.01527628 76.95078489 -54 78 C-57.04361466 75.97092356 -57.59706797 75.2694493 -59.0625 72.125 C-59.38347656 71.44695312 -59.70445312 70.76890625 -60.03515625 70.0703125 C-60.35355469 69.38710938 -60.67195313 68.70390625 -61 68 C-61.66296812 66.66482379 -62.32856294 65.33093745 -63 64 C-63.66 64 -64.32 64 -65 64 C-65 63.34 -65 62.68 -65 62 C-65.66 62 -66.32 62 -67 62 C-67.0825 61.21625 -67.165 60.4325 -67.25 59.625 C-67.4975 58.75875 -67.745 57.8925 -68 57 C-69.32930709 56.32534092 -70.66333584 55.65996298 -72 55 C-73.88671875 53.1953125 -73.88671875 53.1953125 -75.6875 51.125 C-76.28949219 50.44695312 -76.89148438 49.76890625 -77.51171875 49.0703125 C-79.00766194 46.98934166 -79.5789756 45.50369174 -80 43 C-78.85423174 41.97612198 -77.68193081 40.98191175 -76.5 40 C-75.8503125 39.443125 -75.200625 38.88625 -74.53125 38.3125 C-70.95907134 36.46025921 -67.91365137 35.80096943 -64 37 C-61.60608177 39.31311405 -60.17114143 42.01176293 -58.625 44.9375 C-57.78754638 46.42786198 -56.94656934 47.91625128 -56.1015625 49.40234375 C-55.74400879 50.06741943 -55.38645508 50.73249512 -55.01806641 51.41772461 C-54.07882486 53.17316958 -54.07882486 53.17316958 -52 54 C-51.7525 53.29875 -51.505 52.5975 -51.25 51.875 C-49.83046505 48.61006961 -48.02868562 45.92369398 -46 43 C-45.29875 41.88625 -44.5975 40.7725 -43.875 39.625 C-43.25625 38.75875 -42.6375 37.8925 -42 37 C-41.34 37 -40.68 37 -40 37 C-39.34 35.35 -38.68 33.7 -38 32 C-37.34 32 -36.68 32 -36 32 C-35.65775391 31.17048828 -35.65775391 31.17048828 -35.30859375 30.32421875 C-29.30821557 19.66683063 -16.14628209 10.37092131 -6 4 C-4.87300188 3.25300587 -3.74799171 2.50300372 -2.625 1.75 C-1.75875 1.1725 -0.8925 0.595 0 0 Z " fill="#3C3A39" transform="translate(328,198)"/>
<path d="M0 0 C0.28256503 10.51769816 0.3505602 20.83509866 -1.3125 31.25 C-1.48906128 32.37208862 -1.48906128 32.37208862 -1.66918945 33.5168457 C-2.57633705 38.71422684 -3.60632527 44.26912681 -6 49 C-7.485 49.495 -7.485 49.495 -9 50 C-9.04958399 44.55567744 -9.08580666 39.11148751 -9.10986328 33.66699219 C-9.11989631 31.81638294 -9.13352586 29.96578945 -9.15087891 28.11523438 C-9.17524608 25.4491791 -9.18651023 22.78333416 -9.1953125 20.1171875 C-9.20563507 19.29507782 -9.21595764 18.47296814 -9.22659302 17.62594604 C-9.22759428 12.45361373 -9.10954625 7.40611375 -5.52734375 3.3203125 C-1.11111111 0 -1.11111111 0 0 0 Z " fill="#343231" transform="translate(305,236)"/>
<path d="M0 0 C14.0300576 1.56340729 26.88035301 10.61978442 37 20 C37 20.66 37 21.32 37 22 C35.68 22 34.36 22 33 22 C33 21.34 33 20.68 33 20 C32.12472656 19.71898437 31.24945313 19.43796875 30.34765625 19.1484375 C27.29726301 18.10197821 24.39108774 16.91488394 21.4375 15.625 C11.41967223 11.43752329 1.82040763 8.68333289 -9.00390625 7.58984375 C-12 7 -12 7 -16 4 C-10.555 3.01 -10.555 3.01 -5 2 C-5.33 2.99 -5.66 3.98 -6 5 C-5.01 5 -4.02 5 -3 5 C-2.690625 4.360625 -2.38125 3.72125 -2.0625 3.0625 C-1 1 -1 1 0 0 Z " fill="#3B3837" transform="translate(210,291)"/>
<path d="M0 0 C0.66 0.33 1.32 0.66 2 1 C2.99 1.33 3.98 1.66 5 2 C5.33 2.99 5.66 3.98 6 5 C6.99 4.67 7.98 4.34 9 4 C9.33 3.34 9.66 2.68 10 2 C10.66 2 11.32 2 12 2 C11.38162597 6.77163242 9.42294105 10.50466929 7.1875 14.6875 C6.84396484 15.36361328 6.50042969 16.03972656 6.14648438 16.73632812 C2.94827774 22.76671774 2.94827774 22.76671774 -1 24 C-4 22 -4 22 -4.66015625 19.9765625 C-4.79292969 19.20054687 -4.92570312 18.42453125 -5.0625 17.625 C-5.62584052 14.41664161 -6.3104464 11.80973383 -8 9 C-8.66 8.67 -9.32 8.34 -10 8 C-8.6875 6.5 -8.6875 6.5 -7 5 C-6.01 5 -5.02 5 -4 5 C-3.566875 4.0409375 -3.566875 4.0409375 -3.125 3.0625 C-2 1 -2 1 0 0 Z " fill="#383534" transform="translate(275,252)"/>
<path d="M0 0 C0 0.99 0 1.98 0 3 C-1.6126476 4.37246604 -3.23052667 5.73915712 -4.87109375 7.078125 C-11.47784948 13.04238889 -16.62441778 20.66728395 -21.58984375 28.00390625 C-23 30 -23 30 -25 32 C-25.1546875 31.0409375 -25.1546875 31.0409375 -25.3125 30.0625 C-25.539375 29.381875 -25.76625 28.70125 -26 28 C-28.63106761 26.94729537 -28.63106761 26.94729537 -30 27 C-31.35368596 28.31266518 -32.68799596 29.64567325 -34 31 C-34.66 30.67 -35.32 30.34 -36 30 C-26.69980096 20.43365854 -17.36575815 11.13663884 -6 4 C-4.87300188 3.25300587 -3.74799171 2.50300372 -2.625 1.75 C-1.325625 0.88375 -1.325625 0.88375 0 0 Z " fill="#535151" transform="translate(328,198)"/>
<path d="M0 0 C0.99 0.495 0.99 0.495 2 1 C2 1.99 2 2.98 2 4 C1.34 3.67 0.68 3.34 0 3 C0 2.01 0 1.02 0 0 Z M0 4 C0.33 4.66 0.66 5.32 1 6 C1.66 6 2.32 6 3 6 C3 6.99 3 7.98 3 9 C3.33 7.68 3.66 6.36 4 5 C4.66 5 5.32 5 6 5 C7.0044134 7.2898234 8.00367612 9.5816599 9 11.875 C9.28617188 12.52597656 9.57234375 13.17695313 9.8671875 13.84765625 C12 18.7734375 12 18.7734375 12 21 C8.14243493 23.15305957 5.44870215 24.39253254 1 24 C1 23.34 1 22.68 1 22 C0.34 21.67 -0.32 21.34 -1 21 C-1.73828125 18.453125 -1.73828125 18.453125 -2.3125 15.25 C-2.51488281 14.20328125 -2.71726563 13.1565625 -2.92578125 12.078125 C-3.01335086 8.44629049 -2.11404084 6.89008115 0 4 Z " fill="#403E3D" transform="translate(226,220)"/>
<path d="M0 0 C0.66 0 1.32 0 2 0 C2.45375 0.474375 2.9075 0.94875 3.375 1.4375 C5.22977487 3.22093737 6.50135592 3.5691993 9 4 C9 3.01 9 2.02 9 1 C9.99 1 10.98 1 12 1 C12.103125 1.639375 12.20625 2.27875 12.3125 2.9375 C12.6528125 3.9584375 12.6528125 3.9584375 13 5 C13.99 5.33 14.98 5.66 16 6 C17.13500977 7.51879883 17.13500977 7.51879883 18.19140625 9.45703125 C18.77245117 10.50793945 18.77245117 10.50793945 19.36523438 11.58007812 C19.76033203 12.31677734 20.15542969 13.05347656 20.5625 13.8125 C20.96146484 14.53759766 21.36042969 15.26269531 21.77148438 16.00976562 C22.86192414 17.99949962 23.94165208 19.99301878 25 22 C25.3724585 22.65701904 25.74491699 23.31403809 26.12866211 23.9909668 C27 26 27 26 27 30 C23.21360875 28.73786958 22.95895404 27.34654649 21 24 C20.01 23.34 19.02 22.68 18 22 C17.67 21.01 17.34 20.02 17 19 C15.3545622 17.31237149 13.68711423 15.6459651 12 14 C11.34 13.01 10.68 12.02 10 11 C9.01 10.67 8.02 10.34 7 10 C6.67 9.01 6.34 8.02 6 7 C5.175 6.525625 4.35 6.05125 3.5 5.5625 C1 4 1 4 0.1875 1.8125 C0.125625 1.214375 0.06375 0.61625 0 0 Z " fill="#403E3E" transform="translate(213,270)"/>
<path d="M0 0 C12.63312483 -0.61680718 12.63312483 -0.61680718 18 3 C18.9375 6.6875 18.9375 6.6875 19 10 C19.66 10 20.32 10 21 10 C20.72097404 16.55711013 18.13224852 20.95290044 14 26 C13.01 26.66 12.02 27.32 11 28 C10.34 25.69 9.68 23.38 9 21 C10.32 21.33 11.64 21.66 13 22 C14.17188934 18.01557624 15.20759151 14.07524365 16 10 C16.33 9.01 16.66 8.02 17 7 C16.35933594 7.05800781 15.71867187 7.11601562 15.05859375 7.17578125 C10.27677245 7.42520561 6.88807421 7.43497599 2.875 4.625 C1.92625 3.75875 0.9775 2.8925 0 2 C0 1.34 0 0.68 0 0 Z " fill="#3D3A3A" transform="translate(307,263)"/>
<path d="M0 0 C0 0.99 0 1.98 0 3 C0.66 3 1.32 3 2 3 C2 2.34 2 1.68 2 1 C2.66 1 3.32 1 4 1 C2.63312778 4.98671063 0.84804907 7.88494633 -2 11 C-2.66 11 -3.32 11 -4 11 C-4.33 11.99 -4.66 12.98 -5 14 C-7.31 14.33 -9.62 14.66 -12 15 C-12 14.34 -12 13.68 -12 13 C-12.99 12.67 -13.98 12.34 -15 12 C-15.3721042 10.67696283 -15.70630173 9.34262065 -16 8 C-16.66 7.67 -17.32 7.34 -18 7 C-15.69 6.34 -13.38 5.68 -11 5 C-11 5.66 -11 6.32 -11 7 C-8.9600281 5.63676257 -8.9600281 5.63676257 -7 4 C-7 3.34 -7 2.68 -7 2 C-4.35261084 0.5393715 -3.10551666 0 0 0 Z " fill="#373333" transform="translate(282,302)"/>
<path d="M0 0 C7.22712358 3.53981563 12.61380885 8.5999335 16 16 C15.34 16.66 14.68 17.32 14 18 C11.69 17.34 9.38 16.68 7 16 C7 15.01 7 14.02 7 13 C6.01 13.33 5.02 13.66 4 14 C-0.17048478 11.10619424 -2.56854369 9.01009707 -4 4 C-2.35 3.67 -0.7 3.34 1 3 C0.67 2.01 0.34 1.02 0 0 Z " fill="#3A3737" transform="translate(208,257)"/>
<path d="M0 0 C-0.309375 0.53625 -0.61875 1.0725 -0.9375 1.625 C-2.59910232 5.33916989 -3 8.95600131 -3 13 C-3.65438441 15.00405227 -4.32060826 17.00428677 -5 19 C-5 19.66 -5 20.32 -5 21 C-6.8125 21.6875 -6.8125 21.6875 -9 22 C-11.46149201 20.4501717 -11.98065826 19.05544633 -12.9375 16.3125 C-13.02354497 11.75211674 -11.54602419 8.73151671 -9 5 C-3.61538462 0 -3.61538462 0 0 0 Z " fill="#3D3A3A" transform="translate(219,308)"/>
<path d="M0 0 C0.33 0 0.66 0 1 0 C1 7.92 1 15.84 1 24 C2.65 24 4.3 24 6 24 C5.60921501 30.45469001 5.09470687 37.19411831 2 43 C0.515 43.495 0.515 43.495 -1 44 C-1.02476266 38.53735686 -1.04288974 33.07474657 -1.05493164 27.61206055 C-1.05995303 25.75463288 -1.06677141 23.89720915 -1.07543945 22.03979492 C-1.08760117 19.36636379 -1.09325033 16.69298504 -1.09765625 14.01953125 C-1.10281754 13.19226028 -1.10797882 12.36498932 -1.11329651 11.51264954 C-1.1136812 7.5377466 -0.98980119 3.88043167 0 0 Z " fill="#676564" transform="translate(297,242)"/>
<path d="M0 0 C3.79253725 4.5510447 6.82455335 9.54374688 7.25 15.5 C7.1675 16.325 7.085 17.15 7 18 C6.34 18 5.68 18 5 18 C5 17.01 5 16.02 5 15 C4.34 15 3.68 15 3 15 C3 13.68 3 12.36 3 11 C2.03886134 9.63838689 1.04115841 8.30144802 0 7 C0 6.34 0 5.68 0 5 C-0.99 4.67 -1.98 4.34 -3 4 C-2.01 2.68 -1.02 1.36 0 0 Z M-8 8 C-7.0925 8.165 -6.185 8.33 -5.25 8.5 C-1.88912497 9.10137146 -1.88912497 9.10137146 2 9 C2.6875 10.625 2.6875 10.625 3 13 C2.505 13.94875 2.01 14.8975 1.5 15.875 C-0.24441697 19.50920202 -0.00205474 21.1739728 1 25 C0.34 25 -0.32 25 -1 25 C-1.79211929 23.10435574 -2.58367576 21.20847629 -3.375 19.3125 C-3.81585938 18.25675781 -4.25671875 17.20101562 -4.7109375 16.11328125 C-5.82757462 13.41643343 -6.92291801 10.71283736 -8 8 Z " fill="#484545" transform="translate(224,211)"/>
<path d="M0 0 C2 3 2 3 3 6 C6.27773504 5.24849977 6.27773504 5.24849977 8 2 C8.33 2.99 8.66 3.98 9 5 C9.66 4.67 10.32 4.34 11 4 C12.8633729 13.67259932 12.8633729 13.67259932 10.80078125 16.84375 C8.63731058 18.64576915 6.88674108 20 4 20 C3.32749476 17.41806023 2.66182099 14.83467929 2 12.25 C1.71382813 11.15558594 1.71382813 11.15558594 1.421875 10.0390625 C0.53484036 6.55428354 0 3.61876278 0 0 Z " fill="#393635" transform="translate(290,200)"/>
<path d="M0 0 C0.99 0.33 1.98 0.66 3 1 C2.67 1.33 2.34 1.66 2 2 C2.66 2.66 3.32 3.32 4 4 C1.16860783 8.50613051 -0.71482289 11.38508477 -6 13 C-6.33 13.66 -6.66 14.32 -7 15 C-12.69798424 17.18220673 -17.94893809 17.21915315 -24 17 C-24 16.67 -24 16.34 -24 16 C-23.35933594 15.89042969 -22.71867188 15.78085938 -22.05859375 15.66796875 C-16.6438309 14.67539672 -11.96677361 13.37541347 -7 11 C-8.72226496 7.75150023 -8.72226496 7.75150023 -12 7 C-12 6.34 -12 5.68 -12 5 C-10.03852126 3.61061923 -8.03833424 2.2739589 -6 1 C-6 2.32 -6 3.64 -6 5 C-5.38125 4.505 -4.7625 4.01 -4.125 3.5 C-2 2 -2 2 0 2 C0 1.34 0 0.68 0 0 Z " fill="#504D4D" transform="translate(273,188)"/>
<path d="M0 0 C0.99 0.33 1.98 0.66 3 1 C3 1.66 3 2.32 3 3 C5.475 3.99 5.475 3.99 8 5 C7.67 5.99 7.34 6.98 7 8 C7.33 8.66 7.66 9.32 8 10 C6.35 10 4.7 10 3 10 C3.33 11.32 3.66 12.64 4 14 C-0.75 12.125 -0.75 12.125 -3 11 C-3.33 12.98 -3.66 14.96 -4 17 C-5.5625 15.3125 -5.5625 15.3125 -7 13 C-6.625 10.4375 -6.625 10.4375 -6 8 C-6.33 7.01 -6.66 6.02 -7 5 C-6.401875 4.9175 -5.80375 4.835 -5.1875 4.75 C-2.4033704 3.79544128 -1.56688858 2.42867729 0 0 Z " fill="#444140" transform="translate(202,251)"/>
<path d="M0 0 C2.00720923 0.28674418 4.0085944 0.61866701 6 1 C6 1.99 6 2.98 6 4 C1.0778204 8.732865 -5.61645745 9.56615261 -12.1640625 10.11328125 C-16.64958957 9.9341073 -20.15730807 8.21073387 -24 6 C-23.401875 5.855625 -22.80375 5.71125 -22.1875 5.5625 C-20.43849596 5.1127561 -18.71322977 4.57107659 -17 4 C-17 4.99 -17 5.98 -17 7 C-15.68 7.33 -14.36 7.66 -13 8 C-12.9175 7.38125 -12.835 6.7625 -12.75 6.125 C-12 4 -12 4 -10.125 2.6875 C-8 2 -8 2 -5 3 C-4.01 3.66 -3.02 4.32 -2 5 C-1.34 5 -0.68 5 0 5 C-0.185625 4.360625 -0.37125 3.72125 -0.5625 3.0625 C-0.706875 2.381875 -0.85125 1.70125 -1 1 C-0.67 0.67 -0.34 0.34 0 0 Z " fill="#373433" transform="translate(261,195)"/>
<path d="M0 0 C2.31 0.33 4.62 0.66 7 1 C8.33257403 20.00455581 8.33257403 20.00455581 7 28 C6.34 28 5.68 28 5 28 C4.89042969 27.10539062 4.78085938 26.21078125 4.66796875 25.2890625 C3.79937039 18.66511729 2.76599547 12.41026407 0.5859375 6.0859375 C0 4 0 4 0 0 Z " fill="#565454" transform="translate(241,280)"/>
<path d="M0 0 C0.5534764 2.07553648 1 3.84365964 1 6 C-0.65 6.33 -2.3 6.66 -4 7 C-4.33 6.01 -4.66 5.02 -5 4 C-7.99152582 4.77479736 -7.99152582 4.77479736 -11 6 C-11.33 6.99 -11.66 7.98 -12 9 C-13.65 8.67 -15.3 8.34 -17 8 C-16.67 7.01 -16.34 6.02 -16 5 C-16.680625 5.37125 -17.36125 5.7425 -18.0625 6.125 C-21.93592219 7.27878533 -24.25599857 6.32141227 -28 5 C-28 4.67 -28 4.34 -28 4 C-26.948125 4.061875 -25.89625 4.12375 -24.8125 4.1875 C-21.08754603 4.32938181 -21.08754603 4.32938181 -18.78125 2.53125 C-15.06164873 0.48337964 -11.86838339 0.44326936 -7.6875 0.3125 C-6.94693359 0.27833984 -6.20636719 0.24417969 -5.44335938 0.20898438 C-3.62941836 0.12706446 -1.81473647 0.06184178 0 0 Z " fill="#353231" transform="translate(260,194)"/>
<path d="M0 0 C1.98 0.99 1.98 0.99 4 2 C4 2.66 4 3.32 4 4 C4.928125 3.67 5.85625 3.34 6.8125 3 C10 2 10 2 13 2 C13 4.66666667 13 7.33333333 13 10 C13.66 10.33 14.32 10.66 15 11 C14.67 11.66 14.34 12.32 14 13 C12.35 13 10.7 13 9 13 C9.33 13.33 9.66 13.66 10 14 C9.5625 16.0625 9.5625 16.0625 9 18 C7.68462636 15.56401192 6.37260857 13.1263175 5.0625 10.6875 C4.68931641 9.99720703 4.31613281 9.30691406 3.93164062 8.59570312 C3.57392578 7.92861328 3.21621094 7.26152344 2.84765625 6.57421875 C2.51773682 5.96151123 2.18781738 5.34880371 1.84790039 4.7175293 C1 3 1 3 0 0 Z " fill="#363332" transform="translate(206,201)"/>
<path d="M0 0 C1.32 0.99 2.64 1.98 4 3 C3.51098901 9.35714286 3.51098901 9.35714286 1.0625 12.4375 C-1 14 -1 14 -3 14 C-3 13.34 -3 12.68 -3 12 C-5.31 12 -7.62 12 -10 12 C-10.042721 10.33388095 -10.04063832 8.66617115 -10 7 C-9 6 -9 6 -5.4375 5.9375 C-4.303125 5.958125 -3.16875 5.97875 -2 6 C-1.855625 5.195625 -1.71125 4.39125 -1.5625 3.5625 C-1 1 -1 1 0 0 Z " fill="#373434" transform="translate(185,232)"/>
<path d="M0 0 C2.86724686 0.57344937 3.8614515 0.8614515 6 3 C7.11816115 7.69627682 7.08266818 12.20524584 7 17 C6.67 16.34 6.34 15.68 6 15 C5.01 15 4.02 15 3 15 C2.67 15.66 2.34 16.32 2 17 C-2.63243635 7.48627741 -2.63243635 7.48627741 -1.25 2.875 C-0.8375 1.92625 -0.425 0.9775 0 0 Z " fill="#3F3C3B" transform="translate(240,266)"/>
<path d="M0 0 C3.375 -0.125 3.375 -0.125 7 0 C7.66 0.66 8.32 1.32 9 2 C9 1.34 9 0.68 9 0 C13.71193942 0.49100648 16.22407057 2.43513267 19.8125 5.4375 C20.78832031 6.24058594 21.76414063 7.04367187 22.76953125 7.87109375 C23.50558594 8.57363281 24.24164063 9.27617187 25 10 C25 10.66 25 11.32 25 12 C23.68 12 22.36 12 21 12 C21 11.34 21 10.68 21 10 C20.13761719 9.72285156 19.27523437 9.44570313 18.38671875 9.16015625 C15.12705094 8.04352264 11.98328746 6.78377858 8.8125 5.4375 C5.88521182 4.19662438 3.01665262 3.00555087 0 2 C0 1.34 0 0.68 0 0 Z " fill="#494747" transform="translate(222,301)"/>
<path d="M0 0 C0.66 0 1.32 0 2 0 C2.45375 0.474375 2.9075 0.94875 3.375 1.4375 C5.22977487 3.22093737 6.50135592 3.5691993 9 4 C9 3.01 9 2.02 9 1 C9.99 1 10.98 1 12 1 C12.103125 1.639375 12.20625 2.27875 12.3125 2.9375 C12.6528125 3.9584375 12.6528125 3.9584375 13 5 C13.99 5.33 14.98 5.66 16 6 C16 8.66666667 16 11.33333333 16 14 C14.51545194 13.40917986 13.03745649 12.80187345 11.5625 12.1875 C10.32693359 11.68283203 10.32693359 11.68283203 9.06640625 11.16796875 C7 10 7 10 6 7 C5.175 6.525625 4.35 6.05125 3.5 5.5625 C1 4 1 4 0.1875 1.8125 C0.125625 1.214375 0.06375 0.61625 0 0 Z " fill="#363333" transform="translate(213,270)"/>
<path d="M0 0 C0.66 0 1.32 0 2 0 C2.52923572 2.12292296 3.04815377 4.24842051 3.5625 6.375 C3.85253906 7.55835938 4.14257812 8.74171875 4.44140625 9.9609375 C5 13 5 13 4 15 C3.01 15.66 2.02 16.32 1 17 C1 15.33333333 1 13.66666667 1 12 C0.0409375 11.8453125 0.0409375 11.8453125 -0.9375 11.6875 C-1.618125 11.460625 -2.29875 11.23375 -3 11 C-3.66666667 9 -4.33333333 7 -5 5 C-4.34 4.01 -3.68 3.02 -3 2 C-2.01 2 -1.02 2 0 2 C0 1.34 0 0.68 0 0 Z " fill="#363332" transform="translate(293,183)"/>
<path d="M0 0 C0.99 0.495 0.99 0.495 2 1 C2 1.99 2 2.98 2 4 C1.34 3.67 0.68 3.34 0 3 C0 2.01 0 1.02 0 0 Z M0 4 C0.33 4.66 0.66 5.32 1 6 C1.66 6 2.32 6 3 6 C3 6.99 3 7.98 3 9 C3.66 9.33 4.32 9.66 5 10 C4.34 10 3.68 10 3 10 C4.32 11.65 5.64 13.3 7 15 C4.6875 17.0625 4.6875 17.0625 2 19 C1.01 18.67 0.02 18.34 -1 18 C-2.2789461 15.10743031 -2.80752884 12.1490421 -3 9 C-1.625 5.9375 -1.625 5.9375 0 4 Z " fill="#363332" transform="translate(226,220)"/>
<path d="M0 0 C3.49274115 6.98548229 4.27432539 12.28840858 4 20 C3.67 18.68 3.34 17.36 3 16 C1.05000871 16.19471111 1.05000871 16.19471111 -1 17 C-2.28436734 18.9837767 -2.28436734 18.9837767 -3 21 C-4.76462683 17.91190305 -5 16.76687864 -5 13 C-4.34 13 -3.68 13 -3 13 C-2.67 11.68 -2.34 10.36 -2 9 C-1.34 9 -0.68 9 0 9 C0 6.03 0 3.06 0 0 Z " fill="#434140" transform="translate(241,251)"/>
<path d="M0 0 C0 3 0 3 -1.9375 5.375 C-4.05832277 8.07422898 -4.61677737 9.64680201 -5 13 C-5.928125 13.28875 -6.85625 13.5775 -7.8125 13.875 C-11.09791667 14.8875 -11.09791667 14.8875 -14 17 C-14 16.34 -14 15.68 -14 15 C-15.32 14.67 -16.64 14.34 -18 14 C-16.35 13.34 -14.7 12.68 -13 12 C-13 11.34 -13 10.68 -13 10 C-11.171875 8.6328125 -11.171875 8.6328125 -8.75 7.125 C-5.45228819 5.00615524 -2.61597545 2.95718964 0 0 Z " fill="#4A4847" transform="translate(313,277)"/>
<path d="M0 0 C0.28875 0.61875 0.5775 1.2375 0.875 1.875 C1.93720042 4.13325765 1.93720042 4.13325765 4 6 C3.9765625 9.2578125 3.9765625 9.2578125 3.625 13.125 C3.51414062 14.40632813 3.40328125 15.68765625 3.2890625 17.0078125 C3.19367188 17.99523437 3.09828125 18.98265625 3 20 C2.67 20 2.34 20 2 20 C1.67 19.01 1.34 18.02 1 17 C0.34 17 -0.32 17 -1 17 C-1.33 17.66 -1.66 18.32 -2 19 C-2.05394705 16.39555652 -2.09364469 13.79223002 -2.125 11.1875 C-2.14175781 10.44951172 -2.15851563 9.71152344 -2.17578125 8.95117188 C-2.21074628 5.08753574 -2.19397555 3.29096332 0 0 Z " fill="#423F3E" transform="translate(301,245)"/>
<path d="M0 0 C0 0.99 0 1.98 0 3 C0.99 3 1.98 3 3 3 C3.3125 5.3125 3.3125 5.3125 3 8 C0.6167054 9.81883009 -0.95818337 11 -4 11 C-4.33 11.66 -4.66 12.32 -5 13 C-5.66 12.67 -6.32 12.34 -7 12 C-7 11.34 -7 10.68 -7 10 C-7.99 10 -8.98 10 -10 10 C-10 9.34 -10 8.68 -10 8 C-8.01399663 6.6459068 -6.01182457 5.31542376 -4 4 C-2.63113049 2.70317626 -1.2830709 1.38176866 0 0 Z " fill="#393635" transform="translate(300,222)"/>
<path d="M0 0 C2.0625 0.4375 2.0625 0.4375 4 1 C3.01 1.33 2.02 1.66 1 2 C1.33 2.66 1.66 3.32 2 4 C1.01 4 0.02 4 -1 4 C-1 4.66 -1 5.32 -1 6 C-0.0925 6.12375 0.815 6.2475 1.75 6.375 C4.58970323 6.92109677 6.52590591 7.57263803 9 9 C5.45013695 10.77493152 1.43946445 9.35376878 -2.375 8.75 C-3.23867187 8.62753906 -4.10234375 8.50507813 -4.9921875 8.37890625 C-5.8275 8.24871094 -6.6628125 8.11851562 -7.5234375 7.984375 C-8.28575684 7.86803711 -9.04807617 7.75169922 -9.83349609 7.63183594 C-12 7 -12 7 -16 4 C-10.555 3.01 -10.555 3.01 -5 2 C-5.33 2.99 -5.66 3.98 -6 5 C-5.01 5 -4.02 5 -3 5 C-2.690625 4.360625 -2.38125 3.72125 -2.0625 3.0625 C-1 1 -1 1 0 0 Z " fill="#504E4E" transform="translate(210,291)"/>
<path d="M0 0 C0.66 0.33 1.32 0.66 2 1 C1.67 1.99 1.34 2.98 1 4 C0.01 3.67 -0.98 3.34 -2 3 C-2 3.66 -2 4.32 -2 5 C-2.66 5 -3.32 5 -4 5 C-5.61949011 7.57213134 -6.04408751 8.67669159 -5.625 11.75 C-5.315625 12.86375 -5.315625 12.86375 -5 14 C-7 12.625 -7 12.625 -9 11 C-9 10.34 -9 9.68 -9 9 C-9.515625 8.54625 -10.03125 8.0925 -10.5625 7.625 C-11.036875 7.08875 -11.51125 6.5525 -12 6 C-11.58984375 3.8984375 -11.58984375 3.8984375 -11 2 C-10.06027344 1.90912109 -10.06027344 1.90912109 -9.1015625 1.81640625 C-7.87566406 1.69072266 -7.87566406 1.69072266 -6.625 1.5625 C-5.81289062 1.48128906 -5.00078125 1.40007812 -4.1640625 1.31640625 C-1.95727195 1.10909886 -1.95727195 1.10909886 0 0 Z " fill="#43403F" transform="translate(187,270)"/>
<path d="M0 0 C0.66 0 1.32 0 2 0 C0.69205419 8.20908092 0.69205419 8.20908092 -1.75 11 C-4.48285323 12.21460144 -7.03736091 12.66333647 -10 13 C-10 12.34 -10 11.68 -10 11 C-9.34 11 -8.68 11 -8 11 C-8.33 9.35 -8.66 7.7 -9 6 C-6.0173094 4.47551369 -3.181798 3.06059933 0 2 C0 1.34 0 0.68 0 0 Z " fill="#454242" transform="translate(214,223)"/>
<path d="M0 0 C0 1.66666667 0 3.33333333 0 5 C1.98 4.34 3.96 3.68 6 3 C4.54955729 7.10958767 2.48889248 10.43258745 0 14 C-0.4021875 13.0409375 -0.4021875 13.0409375 -0.8125 12.0625 C-1.88667752 9.66868314 -1.88667752 9.66868314 -5 9 C-6.35917681 8.88397569 -6.35917681 8.88397569 -8.0625 11 C-9.0215625 11.99 -9.0215625 11.99 -10 13 C-10.66 12.67 -11.32 12.34 -12 12 C-8.04 8.04 -4.08 4.08 0 0 Z " fill="#535151" transform="translate(304,216)"/>
<path d="M0 0 C2.125 0.9375 2.125 0.9375 4 2 C4 2.66 4 3.32 4 4 C4.99 3.67 5.98 3.34 7 3 C7.99 4.65 8.98 6.3 10 8 C9.34 8.66 8.68 9.32 8 10 C5.69 9.34 3.38 8.68 1 8 C1 7.01 1 6.02 1 5 C0.01 5.33 -0.98 5.66 -2 6 C-2.66 5.01 -3.32 4.02 -4 3 C-3.34 3 -2.68 3 -2 3 C-2 2.34 -2 1.68 -2 1 C-1.34 0.67 -0.68 0.34 0 0 Z " fill="#363332" transform="translate(214,265)"/>
<path d="M0 0 C0 0.99 0 1.98 0 3 C-0.66 2.67 -1.32 2.34 -2 2 C-1.34 1.34 -0.68 0.68 0 0 Z M-9 2 C-3.70558305 1.49576981 -1.18586481 2.81076967 3 6 C2.67 6.99 2.34 7.98 2 9 C-0.31 9.33 -2.62 9.66 -5 10 C-9 4.25 -9 4.25 -9 2 Z " fill="#363332" transform="translate(223,211)"/>
<path d="M0 0 C5.452999 1.56818272 9.76486783 3.03810217 14 7 C13.34 7 12.68 7 12 7 C12 7.66 12 8.32 12 9 C10.56208484 8.85831863 9.1246763 8.71148957 7.6875 8.5625 C6.88699219 8.48128906 6.08648437 8.40007812 5.26171875 8.31640625 C3 8 3 8 0 7 C0.66 5.35 1.32 3.7 2 2 C1.34 2 0.68 2 0 2 C0 1.34 0 0.68 0 0 Z " fill="#444241" transform="translate(219,294)"/>
<path d="M0 0 C-0.125 2.25 -0.125 2.25 -1 5 C-4.14838867 7.51871094 -6.97563355 9.3808667 -11 10 C-10.37064741 7.06302123 -9.67498244 4.51247366 -8 2 C-5.08510357 0.50518132 -3.29223784 0 0 0 Z " fill="#3E3C3B" transform="translate(313,213)"/>
<path d="M0 0 C0.99 0.33 1.98 0.66 3 1 C3.375 3.1875 3.375 3.1875 3 6 C1.17130326 8.08832653 -0.69052559 9.38336791 -3 11 C-3.66 11 -4.32 11 -5 11 C-5.66 8.69 -6.32 6.38 -7 4 C-4.69 4.33 -2.38 4.66 0 5 C-0.33 4.01 -0.66 3.02 -1 2 C-0.67 1.34 -0.34 0.68 0 0 Z " fill="#434140" transform="translate(299,209)"/>
<path d="M0 0 C0 0.66 0 1.32 0 2 C0.66 2.33 1.32 2.66 2 3 C-0.97 5.31 -3.94 7.62 -7 10 C-7.66 9.67 -8.32 9.34 -9 9 C-8.67 8.34 -8.34 7.68 -8 7 C-8.66 6.34 -9.32 5.68 -10 5 C-4.5 0 -4.5 0 0 0 Z " fill="#4A4847" transform="translate(316,289)"/>
<path d="M0 0 C0.33 0 0.66 0 1 0 C1.28571429 7.42857143 1.28571429 7.42857143 -1 11 C-1.99 10.67 -2.98 10.34 -4 10 C-5.33106622 9.65772583 -6.66400079 9.32248257 -8 9 C-7.04270084 7.87411986 -6.08412105 6.7493285 -5.125 5.625 C-4.59132812 4.99851562 -4.05765625 4.37203125 -3.5078125 3.7265625 C-2.38567993 2.44163349 -1.20628025 1.20628025 0 0 Z " fill="#302D2D" transform="translate(196,263)"/>
<path d="M0 0 C2.6875 -0.3125 2.6875 -0.3125 5 0 C4.38461538 5.53846154 4.38461538 5.53846154 2.4375 7.875 C1.7259375 8.431875 1.7259375 8.431875 1 9 C-1.475 8.01 -1.475 8.01 -4 7 C-3.67 6.34 -3.34 5.68 -3 5 C-2.5875 4.13375 -2.175 3.2675 -1.75 2.375 C-1.1725 1.59125 -0.595 0.8075 0 0 Z " fill="#454242" transform="translate(275,267)"/>
<path d="M0 0 C0.99 0.33 1.98 0.66 3 1 C2.34 1 1.68 1 1 1 C1.33 7.6 1.66 14.2 2 21 C2.99 19.68 3.98 18.36 5 17 C5 19.64 5 22.28 5 25 C3.35 25 1.7 25 0 25 C0 16.75 0 8.5 0 0 Z " fill="#2F2C2C" transform="translate(298,241)"/>
<path d="M0 0 C8.26747851 -0.23658921 15.92046224 0.18655665 24 2 C23.67 2.66 23.34 3.32 23 4 C16.84765625 4.09765625 16.84765625 4.09765625 15 4 C14.67 3.67 14.34 3.34 14 3 C12.96875 3.020625 11.9375 3.04125 10.875 3.0625 C6.75174144 2.99599583 3.88386823 2.26820187 0 1 C0 0.67 0 0.34 0 0 Z " fill="#474544" transform="translate(180,287)"/>
<path d="M0 0 C0.99 0 1.98 0 3 0 C3 1.32 3 2.64 3 4 C3.66 4 4.32 4 5 4 C4.7452486 5.31571603 4.47065859 6.62760376 4.1875 7.9375 C4.03667969 8.66839844 3.88585937 9.39929688 3.73046875 10.15234375 C3.48941406 10.76207031 3.24835938 11.37179687 3 12 C2.01 12.33 1.02 12.66 0 13 C0 8.71 0 4.42 0 0 Z " fill="#565453" transform="translate(296,273)"/>
<path d="M0 0 C0 0.66 0 1.32 0 2 C-2.64738916 3.4606285 -3.89448334 4 -7 4 C-6.67 4.99 -6.34 5.98 -6 7 C-7.65 7.66 -9.3 8.32 -11 9 C-11 8.34 -11 7.68 -11 7 C-12.98 7.33 -14.96 7.66 -17 8 C-14.12071475 5.72195761 -11.2169671 3.95965316 -7.9375 2.3125 C-7.08027344 1.87550781 -6.22304688 1.43851562 -5.33984375 0.98828125 C-3 0 -3 0 0 0 Z " fill="#464443" transform="translate(282,300)"/>
<path d="M0 0 C0.66 0 1.32 0 2 0 C2.36315666 1.9358351 2.71522731 3.87375248 3.0625 5.8125 C3.25972656 6.89144531 3.45695313 7.97039062 3.66015625 9.08203125 C4 12 4 12 3 15 C2.01 15.33 1.02 15.66 0 16 C0 16.66 0 17.32 0 18 C-0.66 18 -1.32 18 -2 18 C-1.25 10.25 -1.25 10.25 1 8 C1.02375926 6.0068433 1.02375926 6.0068433 0.625 3.875 C0.41875 2.59625 0.2125 1.3175 0 0 Z " fill="#363332" transform="translate(238,246)"/>
<path d="M0 0 C2.19264079 1.53916903 4.02504473 3.15970077 6 5 C6 5.66 6 6.32 6 7 C4.68 7 3.36 7 2 7 C2 6.34 2 5.68 2 5 C0.63875 4.5978125 0.63875 4.5978125 -0.75 4.1875 C-3.71471963 3.10423706 -5.6169754 2.01640543 -8 0 C-4.9187194 -0.99041162 -3.01768138 -1.24257468 0 0 Z " fill="#555352" transform="translate(241,306)"/>
<path d="M0 0 C3 1 3 1 4.6875 3.8125 C6 7 6 7 6 11 C2.21360875 9.73786958 1.95895404 8.34654649 0 5 C-0.99 4.34 -1.98 3.68 -3 3 C-2.67 2.34 -2.34 1.68 -2 1 C-1.34 1.33 -0.68 1.66 0 2 C0 1.34 0 0.68 0 0 Z " fill="#5C5B5A" transform="translate(234,289)"/>
<path d="M0 0 C2.64 0 5.28 0 8 0 C7.67 2.64 7.34 5.28 7 8 C5 8 5 8 3.5 6.5625 C3.005 6.046875 2.51 5.53125 2 5 C1.34 4.67 0.68 4.34 0 4 C0 2.68 0 1.36 0 0 Z " fill="#373534" transform="translate(205,197)"/>
<path d="M0 0 C-0.33 4.62 -0.66 9.24 -1 14 C-1.66 14 -2.32 14 -3 14 C-4.18234854 10.30516081 -4.2804701 6.85646386 -4 3 C-1.77419355 0 -1.77419355 0 0 0 Z " fill="#646262" transform="translate(249,294)"/>
<path d="M0 0 C2.67927341 4.01891012 2.15601248 6.24161923 2 11 C1.67 10.34 1.34 9.68 1 9 C0.01 9 -0.98 9 -2 9 C-2.33 9.66 -2.66 10.32 -3 11 C-3.33 9.02 -3.66 7.04 -4 5 C-3.01 4.34 -2.02 3.68 -1 3 C-0.67 2.01 -0.34 1.02 0 0 Z " fill="#343231" transform="translate(245,272)"/>
<path d="M0 0 C0.20625 0.5775 0.4125 1.155 0.625 1.75 C2.49093646 4.80335058 5.00832426 6.11394355 8 8 C8 8.33 8 8.66 8 9 C6.02 9 4.04 9 2 9 C2 8.34 2 7.68 2 7 C0.02 7 -1.96 7 -4 7 C-2.92598892 4.08482708 -2.22189824 2.22189824 0 0 Z " fill="#524F4F" transform="translate(189,238)"/>
<path d="M0 0 C3.19982787 0.59531681 5.37306349 1.28123945 7.546875 3.7734375 C11.13272108 9.19249702 11.13272108 9.19249702 10.62890625 12.2578125 C10.42136719 12.83273437 10.21382813 13.40765625 10 14 C9.16094435 12.87926138 8.32892169 11.75325453 7.5 10.625 C6.80390625 9.68527344 6.80390625 9.68527344 6.09375 8.7265625 C5 7 5 7 5 5 C4.34 5 3.68 5 3 5 C3 4.34 3 3.68 3 3 C2.34 3 1.68 3 1 3 C0.67 2.01 0.34 1.02 0 0 Z " fill="#565453" transform="translate(260,257)"/>
<path d="M0 0 C1.98 0.99 1.98 0.99 4 2 C4 2.66 4 3.32 4 4 C5.65 3.34 7.3 2.68 9 2 C9 3.32 9 4.64 9 6 C6.5 7.75 6.5 7.75 4 9 C0 2.25 0 2.25 0 0 Z " fill="#4C4949" transform="translate(206,201)"/>
<path d="M0 0 C0.99 0.99 1.98 1.98 3 3 C3.66 3.33 4.32 3.66 5 4 C0 9 0 9 -2 10 C-2.66 9.34 -3.32 8.68 -4 8 C-2.68 5.36 -1.36 2.72 0 0 Z " fill="#383635" transform="translate(269,184)"/>
<path d="M0 0 C0.99 0.99 1.98 1.98 3 3 C2.34 3 1.68 3 1 3 C1.33 4.32 1.66 5.64 2 7 C1.34 7 0.68 7 0 7 C0 7.66 0 8.32 0 9 C-0.99 9.33 -1.98 9.66 -3 10 C-3.66 8.68 -4.32 7.36 -5 6 C-3.35 4.02 -1.7 2.04 0 0 Z " fill="#474443" transform="translate(285,237)"/>
<path d="M0 0 C0.66 0.33 1.32 0.66 2 1 C-1.32307692 6.78461538 -1.32307692 6.78461538 -4.75 7.875 C-5.4925 7.91625 -6.235 7.9575 -7 8 C-7.33 7.01 -7.66 6.02 -8 5 C-6.71475739 4.13619741 -5.42157581 3.28419631 -4.125 2.4375 C-3.04605469 1.72400391 -3.04605469 1.72400391 -1.9453125 0.99609375 C-1.30335938 0.66738281 -0.66140625 0.33867187 0 0 Z " fill="#494746" transform="translate(291,293)"/>
<path d="M0 0 C1.51699416 2.80452702 2.45308563 5.3857302 3.125 8.5 C3.29257812 9.2528125 3.46015625 10.005625 3.6328125 10.78125 C4 13 4 13 4 17 C3.34 17 2.68 17 2 17 C1.47226657 14.35536978 0.95252743 11.70960607 0.4375 9.0625 C0.21030273 7.93038086 0.21030273 7.93038086 -0.02148438 6.77539062 C-0.39117799 4.85814233 -0.70042238 2.9294475 -1 1 C-0.67 0.67 -0.34 0.34 0 0 Z " fill="#4F4E4D" transform="translate(296,182)"/>
<path d="M0 0 C-0.309375 0.515625 -0.61875 1.03125 -0.9375 1.5625 C-2.18828017 4.1293925 -2.18828017 4.1293925 -2.5 7.6875 C-2.665 8.780625 -2.83 9.87375 -3 11 C-3.99 11.495 -3.99 11.495 -5 12 C-5 9.69 -5 7.38 -5 5 C-6.32 5.33 -7.64 5.66 -9 6 C-3.15384615 0 -3.15384615 0 0 0 Z " fill="#626160" transform="translate(219,308)"/>
<path d="M0 0 C0 3 0 3 -1 5 C-0.72057545 6.67654729 -0.39171753 8.34608154 0 10 C-2.31 9.67 -4.62 9.34 -7 9 C-6.67 8.01 -6.34 7.02 -6 6 C-5.34 6 -4.68 6 -4 6 C-3.71125 5.38125 -3.4225 4.7625 -3.125 4.125 C-2 2 -2 2 0 0 Z " fill="#4F4D4C" transform="translate(184,229)"/>
<path d="M0 0 C2 2 2 2 3 4 C3.99 4.33 4.98 4.66 6 5 C5.34 6.32 4.68 7.64 4 9 C3.01 9 2.02 9 1 9 C-0.41377341 6.36095629 -1.37240135 3.92879371 -2 1 C-1.34 0.67 -0.68 0.34 0 0 Z " fill="#42403F" transform="translate(289,190)"/>
<path d="M0 0 C0.33 0.99 0.66 1.98 1 3 C-0.4117783 3.53394179 -1.82970244 4.05165104 -3.25 4.5625 C-4.03890625 4.85253906 -4.8278125 5.14257812 -5.640625 5.44140625 C-8.19103452 6.04522837 -9.55322229 5.8473932 -12 5 C-10.56705502 4.15885829 -9.12845595 3.32734313 -7.6875 2.5 C-6.88699219 2.0359375 -6.08648437 1.571875 -5.26171875 1.09375 C-3 0 -3 0 0 0 Z " fill="#4A4747" transform="translate(250,323)"/>
<path d="M0 0 C0.66 0.33 1.32 0.66 2 1 C2 1.99 2 2.98 2 4 C0.46875 5.38671875 0.46875 5.38671875 -1.5 6.6875 C-2.47453125 7.34298828 -2.47453125 7.34298828 -3.46875 8.01171875 C-3.9740625 8.33785156 -4.479375 8.66398437 -5 9 C-5.66 8.67 -6.32 8.34 -7 8 C-5.50902342 4.2047869 -3.24299151 2.38957269 0 0 Z " fill="#4A4848" transform="translate(305,296)"/>
<path d="M0 0 C2.32528287 2.32528287 2.29511025 2.84665898 2.3125 6 C2.33763672 7.051875 2.33763672 7.051875 2.36328125 8.125 C2.18345703 9.053125 2.18345703 9.053125 2 10 C1.01 10.66 0.02 11.32 -1 12 C-1.02687279 10.18757948 -1.04633715 8.37504767 -1.0625 6.5625 C-1.07410156 5.55316406 -1.08570313 4.54382813 -1.09765625 3.50390625 C-1 1 -1 1 0 0 Z " fill="#32302F" transform="translate(246,285)"/>
<path d="M0 0 C0.33 1.32 0.66 2.64 1 4 C1.99 3.67 2.98 3.34 4 3 C6.1875 3.4375 6.1875 3.4375 8 4 C8 4.66 8 5.32 8 6 C4.61608307 7.06351675 3.4195366 7.21442982 0.1875 5.5625 C-0.534375 5.046875 -1.25625 4.53125 -2 4 C-1.34 2.68 -0.68 1.36 0 0 Z " fill="#3F3D3C" transform="translate(174,240)"/>
<path d="M0 0 C0.66 0.33 1.32 0.66 2 1 C4.09821215 0.60061233 4.09821215 0.60061233 6 0 C4.98379995 3.04860014 4.22608429 3.86666922 2 6 C1.67 6.66 1.34 7.32 1 8 C0.34 7.67 -0.32 7.34 -1 7 C-1 3 -1 3 0 0 Z " fill="#2F2D2D" transform="translate(297,297)"/>
<path d="M0 0 C3.63 0 7.26 0 11 0 C10.34 0.66 9.68 1.32 9 2 C8.34 1.67 7.68 1.34 7 1 C7 1.66 7 2.32 7 3 C6.34 3 5.68 3 5 3 C4.67 3.66 4.34 4.32 4 5 C2 3.625 2 3.625 0 2 C0 1.34 0 0.68 0 0 Z " fill="#5B5959" transform="translate(307,263)"/>
<path d="M0 0 C0.66666667 2.66666667 1.33333333 5.33333333 2 8 C-0.31 7.34 -2.62 6.68 -5 6 C-5 5.34 -5 4.68 -5 4 C-3.37373596 2.61767557 -1.7074998 1.28062485 0 0 Z M-1 8 C-0.34 8 0.32 8 1 8 C0.67 8.66 0.34 9.32 0 10 C-0.33 9.34 -0.66 8.68 -1 8 Z " fill="#494746" transform="translate(266,189)"/>
<path d="M0 0 C4.2742558 1.5830577 6.26531794 4.50568404 9 8 C8.01 8.33 7.02 8.66 6 9 C4.76302083 7.50260417 3.52604167 6.00520833 2.2890625 4.5078125 C1.24749008 3.28948839 0.13339903 2.13339903 -1 1 C-0.67 0.67 -0.34 0.34 0 0 Z " fill="#504E4E" transform="translate(212,260)"/>
<path d="M0 0 C3 1 3 1 4.1875 3.0625 C4.455625 3.701875 4.72375 4.34125 5 5 C4.34 5 3.68 5 3 5 C2.67 5.99 2.34 6.98 2 8 C1.01 8.33 0.02 8.66 -1 9 C-1 7.68 -1 6.36 -1 5 C-0.34 5 0.32 5 1 5 C0.67 3.35 0.34 1.7 0 0 Z " fill="#434040" transform="translate(270,248)"/>
<path d="M0 0 C1.32 0.99 2.64 1.98 4 3 C0.79663178 5.83374881 -1.78087253 6.5205537 -6 7 C-6 6.34 -6 5.68 -6 5 C-4.34467377 3.98133771 -2.67739862 2.98189187 -1 2 C-0.67 1.34 -0.34 0.68 0 0 Z " fill="#514F4E" transform="translate(210,229)"/>
<path d="M0 0 C2.97 0.495 2.97 0.495 6 1 C6 1.66 6 2.32 6 3 C3.09432866 5.01782732 0.48330216 6.35494404 -3 7 C-2.38722388 4.03824877 -1.74627478 2.61941217 0 0 Z M1 1 C2 3 2 3 2 3 Z " fill="#343131" transform="translate(305,216)"/>
<path d="M0 0 C0.81404297 0.61488281 0.81404297 0.61488281 1.64453125 1.2421875 C2.35996094 1.78101563 3.07539063 2.31984375 3.8125 2.875 C4.52019531 3.40867188 5.22789062 3.94234375 5.95703125 4.4921875 C7.60456297 5.70814781 9.29624211 6.86416141 11 8 C7.01265823 9.32911392 7.01265823 9.32911392 4 8 C2.15457554 6.10184912 0.61574866 4.10944964 -1 2 C-0.67 1.34 -0.34 0.68 0 0 Z " fill="#4C4A4A" transform="translate(239,187)"/>
<path d="M0 0 C3.3 0 6.6 0 10 0 C9.67 1.32 9.34 2.64 9 4 C8.34 4 7.68 4 7 4 C6.67 4.66 6.34 5.32 6 6 C5.7525 5.38125 5.505 4.7625 5.25 4.125 C3.98960746 1.54131114 3.98960746 1.54131114 0 0 Z " fill="#32302F" transform="translate(197,230)"/>
<path d="M0 0 C2 3 2 3 3 6 C3.99 6.33 4.98 6.66 6 7 C5.34 8.65 4.68 10.3 4 12 C3.34 12 2.68 12 2 12 C0.86235649 7.73383684 0 4.43513689 0 0 Z " fill="#6F6D6D" transform="translate(290,200)"/>
<path d="M0 0 C0 0.66 0 1.32 0 2 C-5.445 3.485 -5.445 3.485 -11 5 C-11.66 4.34 -12.32 3.68 -13 3 C-11.58603098 2.49242138 -10.16868271 1.99425075 -8.75 1.5 C-7.96109375 1.2215625 -7.1721875 0.943125 -6.359375 0.65625 C-4 0 -4 0 0 0 Z " fill="#535151" transform="translate(289,170)"/>
<path d="M0 0 C1.98 0.99 1.98 0.99 4 2 C4.99 1.34 5.98 0.68 7 0 C6.60196439 2.88575819 6.20990931 3.82189513 3.9375 5.75 C3.298125 6.1625 2.65875 6.575 2 7 C1.34 4.69 0.68 2.38 0 0 Z " fill="#504E4E" transform="translate(316,284)"/>
<path d="M0 0 C2 0 2 0 3.4375 1.3125 C4.2109375 2.1478125 4.2109375 2.1478125 5 3 C5.53625 3.474375 6.0725 3.94875 6.625 4.4375 C8.22320509 6.25364215 8.59344055 7.64195518 9 10 C8.34 10 7.68 10 7 10 C6.67 9.01 6.34 8.02 6 7 C5.175 6.525625 4.35 6.05125 3.5 5.5625 C1 4 1 4 0.1875 1.8125 C0.125625 1.214375 0.06375 0.61625 0 0 Z " fill="#5C5A59" transform="translate(213,270)"/>
<path d="M0 0 C0.99 0.495 0.99 0.495 2 1 C2 1.66 2 2.32 2 3 C3.2065625 3.433125 3.2065625 3.433125 4.4375 3.875 C7 5 7 5 8 7 C6.68 7.33 5.36 7.66 4 8 C0 3.375 0 3.375 0 0 Z " fill="#555352" transform="translate(248,241)"/>
<path d="M0 0 C0.99 0.99 1.98 1.98 3 3 C-0.28804981 5.91227269 -2.59885603 7.49701212 -7 8 C-6.34 7.67 -5.68 7.34 -5 7 C-5 6.34 -5 5.68 -5 5 C-3.35 4.67 -1.7 4.34 0 4 C-0.33 3.01 -0.66 2.02 -1 1 C-0.67 0.67 -0.34 0.34 0 0 Z " fill="#52504F" transform="translate(191,271)"/>
<path d="M0 0 C0.99 0 1.98 0 3 0 C3 2.64 3 5.28 3 8 C2.67 8 2.34 8 2 8 C1.67 7.01 1.34 6.02 1 5 C0.34 5 -0.32 5 -1 5 C-1.33 5.66 -1.66 6.32 -2 7 C-2.125 4.625 -2.125 4.625 -2 2 C-1.34 1.34 -0.68 0.68 0 0 Z " fill="#535150" transform="translate(301,257)"/>
<path d="M0 0 C0.66 0.33 1.32 0.66 2 1 C1.67 2.65 1.34 4.3 1 6 C0.34 6 -0.32 6 -1 6 C-1.33 6.99 -1.66 7.98 -2 9 C-2.33 8.01 -2.66 7.02 -3 6 C-3.66 5.34 -4.32 4.68 -5 4 C-3.35 2.68 -1.7 1.36 0 0 Z " fill="#4F4D4C" transform="translate(256,235)"/>
<path d="M0 0 C1.125 1.75 1.125 1.75 2 4 C1.125 6.25 1.125 6.25 0 8 C-0.99 7.67 -1.98 7.34 -3 7 C-2.38722388 4.03824877 -1.74627478 2.61941217 0 0 Z " fill="#3B3837" transform="translate(195,266)"/>
<path d="M0 0 C0.99 0 1.98 0 3 0 C3 0.66 3 1.32 3 2 C4.32 2.33 5.64 2.66 7 3 C5.02 3.99 5.02 3.99 3 5 C3.66 5.33 4.32 5.66 5 6 C4.67 6.99 4.34 7.98 4 9 C0 2.25 0 2.25 0 0 Z " fill="#656363" transform="translate(211,210)"/>
<path d="M0 0 C0.99 0.33 1.98 0.66 3 1 C3.33333333 2.33333333 3.66666667 3.66666667 4 5 C4.99 5.33 5.98 5.66 7 6 C3.25 7.125 3.25 7.125 1 6 C0.375 2.9375 0.375 2.9375 0 0 Z " fill="#5E5C5B" transform="translate(222,270)"/>
<path d="M0 0 C2.97 0.495 2.97 0.495 6 1 C5.01 1.33 4.02 1.66 3 2 C3.33 2.99 3.66 3.98 4 5 C3.34 5.66 2.68 6.32 2 7 C1.87625 6.360625 1.7525 5.72125 1.625 5.0625 C1.315625 4.0415625 1.315625 4.0415625 1 3 C0.34 2.67 -0.32 2.34 -1 2 C-0.67 1.34 -0.34 0.68 0 0 Z " fill="#555352" transform="translate(186,226)"/>
<path d="M0 0 C0.66 0 1.32 0 2 0 C2 0.99 2 1.98 2 3 C2.99 3.33 3.98 3.66 5 4 C4.67 4.66 4.34 5.32 4 6 C-0.455 4.02 -0.455 4.02 -5 2 C-3.68 1.67 -2.36 1.34 -1 1 C-0.67 0.67 -0.34 0.34 0 0 Z " fill="#6F6D6D" transform="translate(242,199)"/>
<path d="M0 0 C1.61949011 2.57213134 2.04408751 3.67669159 1.625 6.75 C1.41875 7.4925 1.2125 8.235 1 9 C-1.62386487 5.93882432 -2 5.26826873 -2 1 C-1.34 0.67 -0.68 0.34 0 0 Z " fill="#615F5E" transform="translate(238,263)"/>
<path d="M0 0 C0.66 0.33 1.32 0.66 2 1 C2 1.66 2 2.32 2 3 C2.66 3 3.32 3 4 3 C4.33 3.99 4.66 4.98 5 6 C4.34 6 3.68 6 3 6 C2.67 6.66 2.34 7.32 2 8 C2 7.01 2 6.02 2 5 C1.01 4.67 0.02 4.34 -1 4 C-0.67 2.68 -0.34 1.36 0 0 Z " fill="#343130" transform="translate(287,236)"/>
<path d="M0 0 C-2.81484045 1.40742022 -4.56936113 0.66652164 -7.625 0.0625 C-8.62789062 -0.13214844 -9.63078125 -0.32679688 -10.6640625 -0.52734375 C-11.43492187 -0.68332031 -12.20578125 -0.83929688 -13 -1 C-13 -1.33 -13 -1.66 -13 -2 C-7.52667068 -3.46845421 -4.88077452 -2.44038726 0 0 Z " fill="#626060" transform="translate(219,300)"/>
<path d="M0 0 C0.99 0 1.98 0 3 0 C2.8125 1.875 2.8125 1.875 2 4 C-0.5625 5.25 -0.5625 5.25 -3 6 C-1.125 1.125 -1.125 1.125 0 0 Z " fill="#484746" transform="translate(322,281)"/>
<path d="M0 0 C0.33 0.66 0.66 1.32 1 2 C0.0625 4.625 0.0625 4.625 -1 7 C-2.32 6.01 -3.64 5.02 -5 4 C-3.35 2.68 -1.7 1.36 0 0 Z " fill="#4A4848" transform="translate(304,236)"/>
<path d="M0 0 C0 0.66 0 1.32 0 2 C-2.90600261 3.25664978 -4.79604584 4 -8 4 C-8 3.34 -8 2.68 -8 2 C-5.09399739 0.74335022 -3.20395416 0 0 0 Z " fill="#575554" transform="translate(261,321)"/>
<path d="M0 0 C0.99 0.66 1.98 1.32 3 2 C3 2.66 3 3.32 3 4 C1.68 4.33 0.36 4.66 -1 5 C-1.66 4.01 -2.32 3.02 -3 2 C-2.01 1.34 -1.02 0.68 0 0 Z " fill="#3E3B3B" transform="translate(274,312)"/>
<path d="M0 0 C2.4375 0.8125 2.4375 0.8125 5 2 C5.33 2.99 5.66 3.98 6 5 C4.68 5 3.36 5 2 5 C2 4.34 2 3.68 2 3 C1.34 3 0.68 3 0 3 C0 2.01 0 1.02 0 0 Z " fill="#5E5C5C" transform="translate(241,308)"/>
<path d="M0 0 C2.125 0.375 2.125 0.375 4 1 C3.01 1.33 2.02 1.66 1 2 C1.33 2.66 1.66 3.32 2 4 C1.01 4 0.02 4 -1 4 C-1 4.66 -1 5.32 -1 6 C-1.66 6 -2.32 6 -3 6 C-2.42655063 3.13275314 -2.1385485 2.1385485 0 0 Z " fill="#464443" transform="translate(210,291)"/>
<path d="M0 0 C2 1 4 2 6 3 C5.67 3.99 5.34 4.98 5 6 C4.34 6 3.68 6 3 6 C0 2.53846154 0 2.53846154 0 0 Z " fill="#514F4E" transform="translate(225,282)"/>
<path d="M0 0 C0.99 0.66 1.98 1.32 3 2 C2.34 4.31 1.68 6.62 1 9 C-0.625 7.3125 -0.625 7.3125 -2 5 C-1.1875 2.25 -1.1875 2.25 0 0 Z " fill="#727070" transform="translate(197,259)"/>
<path d="M0 0 C-0.33 1.65 -0.66 3.3 -1 5 C-1.99 5 -2.98 5 -4 5 C-4 4.34 -4 3.68 -4 3 C-4.66 2.67 -5.32 2.34 -6 2 C-2.25 0 -2.25 0 0 0 Z " fill="#353231" transform="translate(238,241)"/>
<path d="" fill="#9F9D9D" transform="translate(0,0)"/>
<path d="" fill="#9F9D9D" transform="translate(0,0)"/>
</svg>
